<?xml version="1.0" encoding="UTF-8" standalone="no"?>
<!-- Created with Inkscape (http://www.inkscape.org/) -->
<svg xmlns:dc="http://purl.org/dc/elements/1.1/" xmlns:cc="http://creativecommons.org/ns#" xmlns:rdf="http://www.w3.org/1999/02/22-rdf-syntax-ns#" xmlns:svg="http://www.w3.org/2000/svg" xmlns="http://www.w3.org/2000/svg" xmlns:xlink="http://www.w3.org/1999/xlink" xmlns:sodipodi="http://sodipodi.sourceforge.net/DTD/sodipodi-0.dtd" xmlns:inkscape="http://www.inkscape.org/namespaces/inkscape" width="48px" height="48px" id="svg3918" sodipodi:version="0.32" inkscape:version="0.46" sodipodi:docname="Xmoto-logo.svg" inkscape:output_extension="org.inkscape.output.svg.inkscape" inkscape:export-filename="/home/henning/Desktop/stortX.png" inkscape:export-xdpi="960" inkscape:export-ydpi="960">
  <defs id="defs3920">
    <linearGradient id="linearGradient4680">
      <stop id="stop4682" offset="0" style="stop-color:#1d2047;stop-opacity:0.69827586;"/>
      <stop id="stop4684" offset="1" style="stop-color:#ffd71a;stop-opacity:0;"/>
    </linearGradient>
    <linearGradient id="linearGradient4648">
      <stop style="stop-color:#483e13;stop-opacity:1;" offset="0" id="stop4650"/>
      <stop style="stop-color:#c7b852;stop-opacity:0.33620688;" offset="1" id="stop4652"/>
    </linearGradient>
    <linearGradient id="linearGradient4582">
      <stop style="stop-color:#d31616;stop-opacity:1;" offset="0" id="stop4584"/>
      <stop style="stop-color:#ff6565;stop-opacity:1;" offset="1" id="stop4586"/>
    </linearGradient>
    <linearGradient id="linearGradient4554">
      <stop id="stop4556" offset="0" style="stop-color:#ffffff;stop-opacity:0.62068963;"/>
      <stop id="stop4558" offset="1" style="stop-color:#ffffff;stop-opacity:0;"/>
    </linearGradient>
    <linearGradient id="linearGradient4528">
      <stop style="stop-color:#000000;stop-opacity:1;" offset="0" id="stop4530"/>
      <stop style="stop-color:#000000;stop-opacity:0;" offset="1" id="stop4532"/>
    </linearGradient>
    <linearGradient id="linearGradient4514">
      <stop style="stop-color:#ffd71e;stop-opacity:0.50980395;" offset="0" id="stop4516"/>
      <stop style="stop-color:#ffd71a;stop-opacity:0;" offset="1" id="stop4518"/>
    </linearGradient>
    <inkscape:perspective sodipodi:type="inkscape:persp3d" inkscape:vp_x="0 : 24 : 1" inkscape:vp_y="0 : 1000 : 0" inkscape:vp_z="48 : 24 : 1" inkscape:persp3d-origin="24 : 16 : 1" id="perspective3926"/>
    <inkscape:perspective id="perspective3972" inkscape:persp3d-origin="372.04724 : 350.78739 : 1" inkscape:vp_z="744.09448 : 526.18109 : 1" inkscape:vp_y="0 : 1000 : 0" inkscape:vp_x="0 : 526.18109 : 1" sodipodi:type="inkscape:persp3d"/>
    <radialGradient inkscape:collect="always" xlink:href="#linearGradient4528" id="radialGradient4534" cx="27.285715" cy="46.357143" fx="27.285715" fy="46.357143" r="12.142858" gradientTransform="matrix(1,0,0,7.6470584e-2,0,42.812186)" gradientUnits="userSpaceOnUse"/>
    <radialGradient inkscape:collect="always" xlink:href="#linearGradient4528" id="radialGradient4538" gradientUnits="userSpaceOnUse" gradientTransform="matrix(1,0,0,7.6470584e-2,0,42.812186)" cx="27.285715" cy="46.357143" fx="27.285715" fy="46.357143" r="12.142858"/>
    <radialGradient inkscape:collect="always" xlink:href="#linearGradient4528" id="radialGradient4542" gradientUnits="userSpaceOnUse" gradientTransform="matrix(1,0,0,7.6470584e-2,0,42.812186)" cx="27.285715" cy="46.357143" fx="27.285715" fy="46.357143" r="12.142858"/>
    <linearGradient inkscape:collect="always" xlink:href="#linearGradient4514" id="linearGradient4574" x1="33.124664" y1="4.3067098" x2="67.487549" y2="22.649727" gradientUnits="userSpaceOnUse" gradientTransform="matrix(0.9821314,0,0,1.0001438,-1.6683547e-3,-3.4526206e-3)"/>
    <linearGradient inkscape:collect="always" xlink:href="#linearGradient4582" id="linearGradient4588" x1="9.6071835" y1="26.084246" x2="60.498425" y2="27.094398" gradientUnits="userSpaceOnUse" gradientTransform="matrix(0.9821314,0,0,1.0001438,-1.6683547e-3,-3.4526206e-3)"/>
    <linearGradient inkscape:collect="always" xlink:href="#linearGradient4554" id="linearGradient4608" gradientUnits="userSpaceOnUse" x1="23.564734" y1="35.398884" x2="11.564732" y2="-6.6116071" gradientTransform="matrix(1.020931,0,0,1.039655,-1.0268254,-0.4436315)"/>
    <linearGradient inkscape:collect="always" xlink:href="#linearGradient4680" id="linearGradient4612" gradientUnits="userSpaceOnUse" x1="28.385286" y1="22.342125" x2="43.128437" y2="-2.3055968" gradientTransform="matrix(0.2473116,2.2217551,-0.3932608,1.3972045,39.167214,-69.532633)"/>
    <linearGradient inkscape:collect="always" xlink:href="#linearGradient4648" id="linearGradient4646" x1="26.46875" y1="45.28125" x2="26.46875" y2="25.462112" gradientUnits="userSpaceOnUse" gradientTransform="matrix(0.9821314,0,0,1.0001438,-1.6683547e-3,-3.4526206e-3)"/>
    <linearGradient inkscape:collect="always" xlink:href="#linearGradient4648" id="linearGradient4688" x1="23.627478" y1="45.045418" x2="48.755123" y2="45.045418" gradientUnits="userSpaceOnUse" gradientTransform="matrix(1.0644729,0,0,0.5054254,-1.3352656,22.269113)"/>
    <radialGradient r="7.5470953" fy="43.400269" fx="101.73438" cy="43.400269" cx="101.73438" gradientTransform="matrix(-2.2271348,0,0,-2.2259112,887.985,501.72624)" gradientUnits="userSpaceOnUse" id="radialGradient3853" xlink:href="#linearGradient3691" inkscape:collect="always"/>
    <radialGradient r="7.5470953" fy="43.400269" fx="101.73438" cy="43.400269" cx="101.73438" gradientTransform="matrix(8.5111836e-4,0,0,8.5065073e-4,627.17623,439.26271)" gradientUnits="userSpaceOnUse" id="radialGradient3751" xlink:href="#linearGradient3691" inkscape:collect="always"/>
    <radialGradient r="21.482313" fy="442.17331" fx="677.09625" cy="442.17331" cx="677.09625" gradientTransform="matrix(0.346709,1.4677466,-1.0987185,0.2595643,949.9341,-667.72912)" gradientUnits="userSpaceOnUse" id="radialGradient3745" xlink:href="#linearGradient16950" inkscape:collect="always"/>
    <radialGradient r="21.482313" fy="442.17331" fx="677.09625" cy="442.17331" cx="677.09625" gradientTransform="matrix(1.4444603,0.4336145,-0.32457,1.0813003,-135.65401,-330.86823)" gradientUnits="userSpaceOnUse" id="radialGradient3743" xlink:href="#linearGradient16950" inkscape:collect="always"/>
    <radialGradient r="21.482313" fy="442.17331" fx="677.09625" cy="442.17331" cx="677.09625" gradientTransform="matrix(1.0977514,-1.0341321,0.7741485,0.821736,-386.718,777.70903)" gradientUnits="userSpaceOnUse" id="radialGradient3741" xlink:href="#linearGradient16950" inkscape:collect="always"/>
    <radialGradient r="21.482313" fy="442.17331" fx="677.09625" cy="442.17331" cx="677.09625" gradientTransform="matrix(-0.346709,-1.4677466,1.0987185,-0.2595643,447.8061,1549.4255)" gradientUnits="userSpaceOnUse" id="radialGradient3739" xlink:href="#linearGradient16950" inkscape:collect="always"/>
    <radialGradient r="21.482313" fy="442.17331" fx="677.09625" cy="442.17331" cx="677.09625" gradientTransform="matrix(-1.4444603,-0.4336145,0.32457,-1.0813003,1533.3942,1212.5646)" gradientUnits="userSpaceOnUse" id="radialGradient3737" xlink:href="#linearGradient16950" inkscape:collect="always"/>
    <radialGradient r="21.482313" fy="442.17331" fx="677.09625" cy="442.17331" cx="677.09625" gradientTransform="matrix(-1.0977514,1.0341321,-0.7741485,-0.821736,1784.4582,103.9873)" gradientUnits="userSpaceOnUse" id="radialGradient3735" xlink:href="#linearGradient16950" inkscape:collect="always"/>
    <radialGradient r="21.482313" fy="442.17331" fx="677.09625" cy="442.17331" cx="677.09625" gradientTransform="matrix(0.346709,1.4677466,-1.0987185,0.2595643,949.9341,-667.72912)" gradientUnits="userSpaceOnUse" id="radialGradient3733" xlink:href="#linearGradient16950" inkscape:collect="always"/>
    <radialGradient gradientTransform="matrix(-1.0439694,0,0,-1.0433958,136.3377,87.12565)" r="7.5470953" fy="43.400269" fx="101.73438" cy="43.400269" cx="101.73438" gradientUnits="userSpaceOnUse" id="radialGradient3715" xlink:href="#linearGradient3691" inkscape:collect="always"/>
    <radialGradient r="72.46875" fy="388.87503" fx="730.39996" cy="388.87503" cx="730.39996" gradientTransform="matrix(-0.8603565,8.6774576e-2,-9.0289068e-2,-0.8942584,1324.9134,689.49276)" gradientUnits="userSpaceOnUse" id="radialGradient3677" xlink:href="#linearGradient22116" inkscape:collect="always"/>
    <radialGradient r="21.482313" fy="442.17331" fx="677.09625" cy="442.17331" cx="677.09625" gradientTransform="matrix(0.346709,1.4677466,-1.0987185,0.2595643,949.9341,-667.72912)" gradientUnits="userSpaceOnUse" id="radialGradient2859" xlink:href="#linearGradient16950" inkscape:collect="always"/>
    <radialGradient r="21.482313" fy="442.17331" fx="677.09625" cy="442.17331" cx="677.09625" gradientTransform="matrix(-1.0977514,1.0341321,-0.7741485,-0.821736,1784.4582,103.9873)" gradientUnits="userSpaceOnUse" id="radialGradient2856" xlink:href="#linearGradient16950" inkscape:collect="always"/>
    <radialGradient r="21.482313" fy="442.17331" fx="677.09625" cy="442.17331" cx="677.09625" gradientTransform="matrix(-1.4444603,-0.4336145,0.32457,-1.0813003,1533.3942,1212.5646)" gradientUnits="userSpaceOnUse" id="radialGradient2853" xlink:href="#linearGradient16950" inkscape:collect="always"/>
    <radialGradient r="21.482313" fy="442.17331" fx="677.09625" cy="442.17331" cx="677.09625" gradientTransform="matrix(-0.346709,-1.4677466,1.0987185,-0.2595643,447.8061,1549.4255)" gradientUnits="userSpaceOnUse" id="radialGradient2850" xlink:href="#linearGradient16950" inkscape:collect="always"/>
    <radialGradient r="21.482313" fy="442.17331" fx="677.09625" cy="442.17331" cx="677.09625" gradientTransform="matrix(1.0977514,-1.0341321,0.7741485,0.821736,-386.718,777.70903)" gradientUnits="userSpaceOnUse" id="radialGradient2847" xlink:href="#linearGradient16950" inkscape:collect="always"/>
    <radialGradient r="21.482313" fy="442.17331" fx="677.09625" cy="442.17331" cx="677.09625" gradientTransform="matrix(1.4444603,0.4336145,-0.32457,1.0813003,-135.65401,-330.86823)" gradientUnits="userSpaceOnUse" id="radialGradient2844" xlink:href="#linearGradient16950" inkscape:collect="always"/>
    <radialGradient r="21.482313" fy="442.17331" fx="677.09625" cy="442.17331" cx="677.09625" gradientTransform="matrix(0.346709,1.4677466,-1.0987185,0.2595643,949.9341,-667.72912)" gradientUnits="userSpaceOnUse" id="radialGradient2841" xlink:href="#linearGradient16950" inkscape:collect="always"/>
    <radialGradient r="21.482313" fy="442.17331" fx="677.09625" cy="442.17331" cx="677.09625" gradientTransform="matrix(0.3071041,1.3000846,-0.9732109,0.229914,899.48514,-539.77109)" gradientUnits="userSpaceOnUse" id="radialGradient2809" xlink:href="#linearGradient16950" inkscape:collect="always"/>
    <radialGradient r="21.482313" fy="442.17331" fx="677.09625" cy="442.17331" cx="677.09625" gradientTransform="matrix(0.3071041,1.3000846,-0.9732109,0.229914,899.48514,-539.77109)" gradientUnits="userSpaceOnUse" id="radialGradient2797" xlink:href="#linearGradient16950" inkscape:collect="always"/>
    <radialGradient r="21.482313" fy="442.17331" fx="677.09625" cy="442.17331" cx="677.09625" gradientTransform="matrix(0.3071041,1.3000846,-0.9732109,0.229914,899.48514,-539.77109)" gradientUnits="userSpaceOnUse" id="radialGradient2785" xlink:href="#linearGradient16950" inkscape:collect="always"/>
    <radialGradient r="21.482313" fy="442.17331" fx="677.09625" cy="442.17331" cx="677.09625" gradientTransform="matrix(0.3071041,1.3000846,-0.9732109,0.229914,899.48514,-539.77109)" gradientUnits="userSpaceOnUse" id="radialGradient2773" xlink:href="#linearGradient16950" inkscape:collect="always"/>
    <radialGradient r="21.482313" fy="442.17331" fx="677.09625" cy="442.17331" cx="677.09625" gradientTransform="matrix(0.3071041,1.3000846,-0.9732109,0.229914,899.48514,-539.77109)" gradientUnits="userSpaceOnUse" id="radialGradient2761" xlink:href="#linearGradient16950" inkscape:collect="always"/>
    <radialGradient r="21.482313" fy="442.17331" fx="677.09625" cy="442.17331" cx="677.09625" gradientTransform="matrix(0.3071041,1.3000846,-0.9732109,0.229914,899.48514,-539.77109)" gradientUnits="userSpaceOnUse" id="radialGradient2749" xlink:href="#linearGradient16950" inkscape:collect="always"/>
    <inkscape:perspective sodipodi:type="inkscape:persp3d" inkscape:vp_x="0 : 526.18109 : 1" inkscape:vp_y="0 : 1000 : 0" inkscape:vp_z="744.09448 : 526.18109 : 1" inkscape:persp3d-origin="372.04724 : 350.78739 : 1" id="perspective2635"/>
    <radialGradient r="21.482313" fy="442.17331" fx="677.09625" cy="442.17331" cx="677.09625" gradientTransform="matrix(0.3071041,1.3000846,-0.9732109,0.229914,899.48514,-539.77109)" gradientUnits="userSpaceOnUse" id="radialGradient21980" xlink:href="#linearGradient16950" inkscape:collect="always"/>
    <radialGradient r="21.482313" fy="442.17331" fx="677.09625" cy="442.17331" cx="677.09625" gradientTransform="matrix(0.3071041,1.3000846,-0.9732109,0.229914,899.48514,-539.77109)" gradientUnits="userSpaceOnUse" id="radialGradient21974" xlink:href="#linearGradient16950" inkscape:collect="always"/>
    <radialGradient r="21.482313" fy="442.17331" fx="677.09625" cy="442.17331" cx="677.09625" gradientTransform="matrix(0.3071041,1.3000846,-0.9732109,0.229914,899.48514,-539.77109)" gradientUnits="userSpaceOnUse" id="radialGradient21968" xlink:href="#linearGradient16950" inkscape:collect="always"/>
    <radialGradient r="21.482313" fy="442.17331" fx="677.09625" cy="442.17331" cx="677.09625" gradientTransform="matrix(0.3071041,1.3000846,-0.9732109,0.229914,899.48514,-539.77109)" gradientUnits="userSpaceOnUse" id="radialGradient21962" xlink:href="#linearGradient16950" inkscape:collect="always"/>
    <radialGradient r="21.482313" fy="442.17331" fx="677.09625" cy="442.17331" cx="677.09625" gradientTransform="matrix(0.3071041,1.3000846,-0.9732109,0.229914,899.48514,-539.77109)" gradientUnits="userSpaceOnUse" id="radialGradient21956" xlink:href="#linearGradient16950" inkscape:collect="always"/>
    <radialGradient r="21.482313" fy="442.17331" fx="677.09625" cy="442.17331" cx="677.09625" gradientTransform="matrix(0.3071041,1.3000846,-0.9732109,0.229914,899.48514,-539.77109)" gradientUnits="userSpaceOnUse" id="radialGradient21950" xlink:href="#linearGradient16950" inkscape:collect="always"/>
    <radialGradient gradientUnits="userSpaceOnUse" gradientTransform="matrix(0.3071041,1.3000846,-0.9732109,0.229914,899.48514,-539.77109)" r="21.482313" fy="442.17331" fx="677.09625" cy="442.17331" cx="677.09625" id="radialGradient16956" xlink:href="#linearGradient16950" inkscape:collect="always"/>
    <linearGradient y2="424.06967" x2="517.11768" y1="443.44467" x1="494.75235" gradientTransform="matrix(0,-1.2178218,1.2178218,0,-57.713869,1180.3133)" gradientUnits="userSpaceOnUse" id="linearGradient13529" xlink:href="#linearGradient5411" inkscape:collect="always"/>
    <linearGradient y2="456.31082" x2="499.21878" y1="431.66797" x1="498.14734" gradientTransform="matrix(3.8210926e-2,-1.0460709,1.2188165,4.4520985e-2,-74.042378,1076.054)" gradientUnits="userSpaceOnUse" id="linearGradient13526" xlink:href="#linearGradient8566" inkscape:collect="always"/>
    <linearGradient y2="421.8009" x2="503.79663" y1="425.69067" x1="495.99722" gradientTransform="matrix(0,-1.2178218,1.2178218,0,-57.713869,1180.3133)" gradientUnits="userSpaceOnUse" id="linearGradient13523" xlink:href="#linearGradient6457" inkscape:collect="always"/>
    <linearGradient y2="429.87936" x2="505.62695" y1="431.85333" x1="497.91626" gradientTransform="matrix(0,-1.2178218,1.2178218,0,-57.713869,1180.3133)" gradientUnits="userSpaceOnUse" id="linearGradient13520" xlink:href="#linearGradient6457" inkscape:collect="always"/>
    <linearGradient y2="429.87936" x2="505.62695" y1="431.85333" x1="497.91626" gradientTransform="matrix(1.2178218,0,0,1.2178218,-119.84304,30.279886)" gradientUnits="userSpaceOnUse" id="linearGradient13517" xlink:href="#linearGradient6457" inkscape:collect="always"/>
    <linearGradient y2="421.8009" x2="503.79663" y1="425.69067" x1="495.99722" gradientTransform="matrix(1.2178218,0,0,1.2178218,-119.84304,30.279886)" gradientUnits="userSpaceOnUse" id="linearGradient13515" xlink:href="#linearGradient6457" inkscape:collect="always"/>
    <linearGradient y2="456.31082" x2="499.21878" y1="431.66797" x1="498.14734" gradientTransform="matrix(1.0467686,0,0,1.2196294,-35.728387,29.47246)" gradientUnits="userSpaceOnUse" id="linearGradient13513" xlink:href="#linearGradient8566" inkscape:collect="always"/>
    <linearGradient y2="424.06967" x2="517.11768" y1="443.44467" x1="494.75235" gradientTransform="matrix(1.2178218,0,0,1.2178218,-119.84304,30.279886)" gradientUnits="userSpaceOnUse" id="linearGradient13511" xlink:href="#linearGradient5411" inkscape:collect="always"/>
    <linearGradient y2="429.87936" x2="505.62695" y1="431.85333" x1="497.91626" gradientTransform="matrix(1.2178218,0,0,1.2178218,-119.84304,30.279886)" gradientUnits="userSpaceOnUse" id="linearGradient13503" xlink:href="#linearGradient6457" inkscape:collect="always"/>
    <linearGradient y2="421.8009" x2="503.79663" y1="425.69067" x1="495.99722" gradientTransform="matrix(1.2178218,0,0,1.2178218,-119.84304,30.279886)" gradientUnits="userSpaceOnUse" id="linearGradient13501" xlink:href="#linearGradient6457" inkscape:collect="always"/>
    <linearGradient y2="456.31082" x2="499.21878" y1="431.66797" x1="498.14734" gradientTransform="matrix(1.0467686,0,0,1.2196294,-35.728387,29.47246)" gradientUnits="userSpaceOnUse" id="linearGradient13499" xlink:href="#linearGradient8566" inkscape:collect="always"/>
    <linearGradient y2="424.06967" x2="517.11768" y1="443.44467" x1="494.75235" gradientTransform="matrix(1.2178218,0,0,1.2178218,-119.84304,30.279886)" gradientUnits="userSpaceOnUse" id="linearGradient13497" xlink:href="#linearGradient5411" inkscape:collect="always"/>
    <linearGradient y2="421.8009" x2="503.79663" y1="425.69067" x1="495.99722" gradientTransform="matrix(0,-1.2178218,1.2178218,0,22.936455,1113.5389)" gradientUnits="userSpaceOnUse" id="linearGradient9565" xlink:href="#linearGradient6457" inkscape:collect="always"/>
    <linearGradient y2="456.31082" x2="499.21878" y1="431.66797" x1="498.14734" gradientTransform="matrix(0,-1.0467686,1.2196294,0,22.129029,1029.4243)" gradientUnits="userSpaceOnUse" id="linearGradient9563" xlink:href="#linearGradient8566" inkscape:collect="always"/>
    <linearGradient y2="424.06967" x2="517.11768" y1="443.44467" x1="494.75235" gradientTransform="matrix(0,-1.2178218,1.2178218,0,22.936455,1113.5389)" gradientUnits="userSpaceOnUse" id="linearGradient9561" xlink:href="#linearGradient5411" inkscape:collect="always"/>
    <linearGradient gradientTransform="matrix(1.2178218,0,0,1.2178218,-106.84304,-91.720114)" gradientUnits="userSpaceOnUse" y2="429.87936" x2="505.62695" y1="431.85333" x1="497.91626" id="linearGradient8578" xlink:href="#linearGradient6457" inkscape:collect="always"/>
    <linearGradient gradientTransform="matrix(1.2178218,0,0,1.2178218,-106.84304,-91.720114)" gradientUnits="userSpaceOnUse" y2="421.8009" x2="503.79663" y1="425.69067" x1="495.99722" id="linearGradient8576" xlink:href="#linearGradient6457" inkscape:collect="always"/>
    <linearGradient gradientTransform="matrix(1.2178218,0,0,1.2178218,-106.84304,-91.720114)" gradientUnits="userSpaceOnUse" y2="424.06967" x2="517.11768" y1="443.44467" x1="494.75235" id="linearGradient8574" xlink:href="#linearGradient5411" inkscape:collect="always"/>
    <linearGradient gradientTransform="matrix(1.0467686,0,0,1.2196294,-22.728387,-92.52754)" gradientUnits="userSpaceOnUse" y2="456.31082" x2="499.21878" y1="431.66797" x1="498.14734" id="linearGradient8572" xlink:href="#linearGradient8566" inkscape:collect="always"/>
    <linearGradient gradientUnits="userSpaceOnUse" y2="389.09787" x2="480.78824" y1="407.09949" x1="436.31097" id="linearGradient6463" xlink:href="#linearGradient6457" inkscape:collect="always"/>
    <linearGradient gradientTransform="translate(0,2)" gradientUnits="userSpaceOnUse" y2="448.99939" x2="438.61777" y1="479.05145" x1="392.11249" id="linearGradient6433" xlink:href="#linearGradient5411" inkscape:collect="always"/>
    <linearGradient gradientTransform="translate(0,2)" gradientUnits="userSpaceOnUse" y2="447.9823" x2="410.00125" y1="451.32852" x1="393.4024" id="linearGradient6429" xlink:href="#linearGradient6423" inkscape:collect="always"/>
    <linearGradient y2="551.84796" x2="260.36469" y1="551.84796" x1="258.04324" gradientTransform="translate(-6.2329169,-1.0370594)" gradientUnits="userSpaceOnUse" id="linearGradient6419" xlink:href="#linearGradient6405" inkscape:collect="always"/>
    <linearGradient gradientTransform="translate(-3.086559,0.2604996)" y2="551.84796" x2="260.36469" y1="551.84796" x1="258.04324" gradientUnits="userSpaceOnUse" id="linearGradient6415" xlink:href="#linearGradient6405" inkscape:collect="always"/>
    <linearGradient gradientTransform="translate(-2.5166204e-2,1.53062)" gradientUnits="userSpaceOnUse" y2="551.84796" x2="260.36469" y1="551.84796" x1="258.04324" id="linearGradient6411" xlink:href="#linearGradient6405" inkscape:collect="always"/>
    <linearGradient gradientTransform="translate(0,2)" gradientUnits="userSpaceOnUse" y2="411.67294" x2="404.7876" y1="432.62106" x1="392.19174" id="linearGradient5417" xlink:href="#linearGradient5411" inkscape:collect="always"/>
    <linearGradient gradientTransform="translate(0,2)" gradientUnits="userSpaceOnUse" y2="433.88635" x2="419.46585" y1="435.28525" x1="401.53564" id="linearGradient4436" xlink:href="#linearGradient4430" inkscape:collect="always"/>
    <linearGradient id="linearGradient4430">
      <stop id="stop4432" offset="0" style="stop-color:#253e3d;stop-opacity:1;"/>
      <stop id="stop4434" offset="1" style="stop-color:#e2eeed;stop-opacity:1;"/>
    </linearGradient>
    <linearGradient id="linearGradient5411">
      <stop id="stop5413" offset="0" style="stop-color:#f5bf00;stop-opacity:1;"/>
      <stop id="stop5415" offset="1" style="stop-color:#fff0bb;stop-opacity:1;"/>
    </linearGradient>
    <linearGradient id="linearGradient6405">
      <stop id="stop6407" offset="0" style="stop-color:#000000;stop-opacity:1;"/>
      <stop id="stop6409" offset="1" style="stop-color:#ffc707;stop-opacity:1;"/>
    </linearGradient>
    <linearGradient id="linearGradient6423">
      <stop id="stop6425" offset="0" style="stop-color:#bb9258;stop-opacity:1;"/>
      <stop id="stop6427" offset="1" style="stop-color:#dfccb1;stop-opacity:1;"/>
    </linearGradient>
    <linearGradient id="linearGradient6457">
      <stop id="stop6459" offset="0" style="stop-color:#ff0000;stop-opacity:1;"/>
      <stop id="stop6461" offset="1" style="stop-color:#ffa0a0;stop-opacity:1;"/>
    </linearGradient>
    <linearGradient id="linearGradient8566" inkscape:collect="always">
      <stop id="stop8568" offset="0" style="stop-color:#304847;stop-opacity:1;"/>
      <stop id="stop8570" offset="1" style="stop-color:#304847;stop-opacity:0;"/>
    </linearGradient>
    <linearGradient id="linearGradient16950">
      <stop id="stop16952" offset="0" style="stop-color:#222222;stop-opacity:1;"/>
      <stop id="stop16954" offset="1" style="stop-color:#c8c8c8;stop-opacity:1;"/>
    </linearGradient>
    <linearGradient id="linearGradient22116">
      <stop id="stop22118" offset="0" style="stop-color:#646464;stop-opacity:1;"/>
      <stop style="stop-color:#000000;stop-opacity:0;" offset="0.70630205" id="stop22128"/>
      <stop style="stop-color:#ffffff;stop-opacity:0.29896906;" offset="0.93103451" id="stop22124"/>
      <stop id="stop22120" offset="1" style="stop-color:#646464;stop-opacity:0;"/>
    </linearGradient>
    <inkscape:perspective id="perspective198" inkscape:persp3d-origin="25.934853 : 42.666667 : 1" inkscape:vp_z="51.869705 : 64 : 1" inkscape:vp_y="0 : 1000 : 0" inkscape:vp_x="0 : 64 : 1" sodipodi:type="inkscape:persp3d"/>
    <linearGradient id="linearGradient3691">
      <stop style="stop-color:#000000;stop-opacity:1;" offset="0" id="stop3693"/>
      <stop id="stop3697" offset="0.5" style="stop-color:#292a2a;stop-opacity:1;"/>
      <stop style="stop-color:#bcc3c3;stop-opacity:1;" offset="1" id="stop3695"/>
    </linearGradient>
    <radialGradient inkscape:collect="always" xlink:href="#linearGradient22116" id="radialGradient2805" gradientUnits="userSpaceOnUse" gradientTransform="matrix(-0.8603565,8.6774576e-2,-9.0289068e-2,-0.8942584,853.79474,256.32146)" cx="730.39996" cy="388.87503" fx="730.39996" fy="388.87503" r="72.46875"/>
    <radialGradient inkscape:collect="always" xlink:href="#linearGradient3691" id="radialGradient2810" gradientUnits="userSpaceOnUse" gradientTransform="matrix(-2.2271348,0,0,-2.2259112,416.86634,68.55494)" cx="101.73438" cy="43.400269" fx="101.73438" fy="43.400269" r="7.5470953"/>
    <radialGradient inkscape:collect="always" xlink:href="#linearGradient16950" id="radialGradient2834" gradientUnits="userSpaceOnUse" gradientTransform="matrix(0.346709,1.4677466,-1.0987185,0.2595643,949.9341,-667.72912)" cx="677.09625" cy="442.17331" fx="677.09625" fy="442.17331" r="21.482313"/>
    <radialGradient inkscape:collect="always" xlink:href="#linearGradient16950" id="radialGradient2836" gradientUnits="userSpaceOnUse" gradientTransform="matrix(-1.0977514,1.0341321,-0.7741485,-0.821736,1784.4582,103.9873)" cx="677.09625" cy="442.17331" fx="677.09625" fy="442.17331" r="21.482313"/>
    <radialGradient inkscape:collect="always" xlink:href="#linearGradient16950" id="radialGradient2838" gradientUnits="userSpaceOnUse" gradientTransform="matrix(-1.4444603,-0.4336145,0.32457,-1.0813003,1533.3942,1212.5646)" cx="677.09625" cy="442.17331" fx="677.09625" fy="442.17331" r="21.482313"/>
    <radialGradient inkscape:collect="always" xlink:href="#linearGradient16950" id="radialGradient2840" gradientUnits="userSpaceOnUse" gradientTransform="matrix(-0.346709,-1.4677466,1.0987185,-0.2595643,447.8061,1549.4255)" cx="677.09625" cy="442.17331" fx="677.09625" fy="442.17331" r="21.482313"/>
    <radialGradient inkscape:collect="always" xlink:href="#linearGradient16950" id="radialGradient2842" gradientUnits="userSpaceOnUse" gradientTransform="matrix(1.0977514,-1.0341321,0.7741485,0.821736,-386.718,777.70903)" cx="677.09625" cy="442.17331" fx="677.09625" fy="442.17331" r="21.482313"/>
    <radialGradient inkscape:collect="always" xlink:href="#linearGradient16950" id="radialGradient2845" gradientUnits="userSpaceOnUse" gradientTransform="matrix(1.4444603,0.4336145,-0.32457,1.0813003,-135.65401,-330.86823)" cx="677.09625" cy="442.17331" fx="677.09625" fy="442.17331" r="21.482313"/>
    <radialGradient inkscape:collect="always" xlink:href="#linearGradient16950" id="radialGradient2848" gradientUnits="userSpaceOnUse" gradientTransform="matrix(0.346709,1.4677466,-1.0987185,0.2595643,949.9341,-667.72912)" cx="677.09625" cy="442.17331" fx="677.09625" fy="442.17331" r="21.482313"/>
    <radialGradient inkscape:collect="always" xlink:href="#linearGradient3691" id="radialGradient2851" gradientUnits="userSpaceOnUse" gradientTransform="matrix(-2.2271348,0,0,-2.2259112,416.86634,68.55494)" cx="101.73438" cy="43.400269" fx="101.73438" fy="43.400269" r="7.5470953"/>
    <radialGradient inkscape:collect="always" xlink:href="#linearGradient22116" id="radialGradient2854" gradientUnits="userSpaceOnUse" gradientTransform="matrix(-0.8603565,8.6774576e-2,-9.0289068e-2,-0.8942584,853.79474,256.32146)" cx="730.39996" cy="388.87503" fx="730.39996" fy="388.87503" r="72.46875"/>
  </defs>
  <sodipodi:namedview id="base" pagecolor="#ffffff" bordercolor="#666666" borderopacity="1.0" inkscape:pageopacity="0.0" inkscape:pageshadow="2" inkscape:zoom="4.9497475" inkscape:cx="64.019288" inkscape:cy="17.266093" inkscape:current-layer="layer1" showgrid="true" inkscape:grid-bbox="true" inkscape:document-units="px" showguides="true" inkscape:guide-bbox="true" inkscape:window-width="1019" inkscape:window-height="722" inkscape:window-x="-5" inkscape:window-y="-12"/>
  <metadata id="metadata3923">
    <rdf:RDF>
      <cc:Work rdf:about="">
        <dc:format>image/svg+xml</dc:format>
        <dc:type rdf:resource="http://purl.org/dc/dcmitype/StillImage"/>
      </cc:Work>
    </rdf:RDF>
  </metadata>
  <g id="layer1" inkscape:label="Layer 1" inkscape:groupmode="layer">
    <path style="fill:url(#linearGradient4688);fill-opacity:1;fill-rule:evenodd;stroke:#504416;stroke-width:0.28663453px;stroke-linecap:butt;stroke-linejoin:miter;stroke-opacity:1" d="M 29.144468,45.851048 C 27.116382,45.955532 24.910524,45.528345 23.302089,45.262714 C 22.60719,45.147949 23.601543,45.01382 23.872074,44.980311 C 24.333315,44.923181 25.574536,44.904137 26.009534,44.886177 C 27.493608,44.824904 26.531029,44.710766 25.724538,44.533176 C 25.214565,44.420881 24.170197,44.462035 23.587081,44.48611 C 22.697107,44.522854 22.104184,44.439043 23.444584,44.439043 C 24.18197,44.439043 22.022495,44.374444 21.307129,44.344908 C 19.658506,44.276842 22.506887,44.21383 22.874596,44.203708 C 23.688468,44.181306 25.346988,44.342361 26.294526,44.368442 C 27.488945,44.401317 27.609931,44.357564 28.004492,44.227242 C 28.491366,44.066427 27.840448,44.085151 29.57196,44.156641 C 30.457436,44.193201 30.8376,44.203708 31.851915,44.203708 C 32.989182,44.203708 33.467626,44.381661 34.131865,44.509643 C 35.436864,44.761084 36.868163,45.003844 38.976764,45.003844 C 40.295248,45.003844 41.347505,44.933244 42.539194,44.933244 C 44.393542,44.933244 46.157264,44.986421 47.958244,45.060779 C 49.233309,45.113423 46.103545,45.164736 44.848296,45.37204 C 43.678293,45.565267 46.735728,45.570804 45.104138,45.615712 C 44.154482,45.641853 43.312435,45.622427 42.396694,45.592179 C 41.32089,45.556645 40.83772,45.474512 39.689252,45.474512 C 38.99177,45.474512 37.820508,45.581756 37.124303,45.639247 C 36.043022,45.728534 36.730644,45.898115 35.27184,45.898115 C 34.188069,45.898115 33.12764,45.968715 31.994407,45.968715 C 31.05522,45.968715 29.950774,45.930946 29.144468,45.851048 z" id="path4686" sodipodi:nodetypes="csssssssssssssssssssssssc"/>
    <path transform="matrix(0.8896953,0,0,1.0001438,14.727002,-1.2893517)" d="M 39.428573,46.357143 A 12.142858,0.9285714 0 1 1 15.142858,46.357143 A 12.142858,0.9285714 0 1 1 39.428573,46.357143 z" sodipodi:ry="0.9285714" sodipodi:rx="12.142858" sodipodi:cy="46.357143" sodipodi:cx="27.285715" id="path4536" style="fill:url(#radialGradient4538);fill-opacity:1;stroke:#3d3200;stroke-width:0;stroke-linecap:round;stroke-linejoin:round;stroke-miterlimit:4;stroke-dasharray:none;stroke-opacity:1" sodipodi:type="arc" inkscape:export-filename="/home/henning/Desktop/theme/logo.png" inkscape:export-xdpi="70" inkscape:export-ydpi="70"/>
    <path sodipodi:type="arc" style="fill:url(#radialGradient4542);fill-opacity:1;stroke:#3d3200;stroke-width:0;stroke-linecap:round;stroke-linejoin:round;stroke-miterlimit:4;stroke-dasharray:none;stroke-opacity:1" id="path4540" sodipodi:cx="27.285715" sodipodi:cy="46.357143" sodipodi:rx="12.142858" sodipodi:ry="0.9285714" d="M 39.428573,46.357143 A 12.142858,0.9285714 0 1 1 15.142858,46.357143 A 12.142858,0.9285714 0 1 1 39.428573,46.357143 z" transform="matrix(0.8896953,0,0,1.0001438,-13.754808,-1.2893517)" inkscape:export-filename="/home/henning/Desktop/theme/logo.png" inkscape:export-xdpi="70" inkscape:export-ydpi="70"/>
    <path style="font-size:64.45117188px;font-style:normal;font-variant:normal;font-weight:bold;font-stretch:normal;fill:url(#linearGradient4588);fill-opacity:1;stroke:#410000;stroke-width:0.99109668;stroke-linecap:round;stroke-linejoin:round;stroke-miterlimit:4;stroke-dasharray:none;stroke-opacity:1;font-family:Ouhod;-inkscape-font-specification:Ouhod Bold" d="M 33.36136,22.194597 L 47.019438,44.772844 L 33.13443,44.772844 L 25.769797,33.368766 L 18.516226,44.772844 L 4.9644007,44.772844 L 18.326317,22.531584 L 5.4826848,0.52621742 L 19.293653,0.52621742 L 25.880858,11.121523 L 32.838267,0.52621742 L 46.390094,0.52621742 L 33.36136,22.194597" id="text3978" sodipodi:nodetypes="ccccccccccccc" inkscape:export-filename="/home/henning/Desktop/theme/logo.png" inkscape:export-xdpi="70" inkscape:export-ydpi="70"/>
    <path sodipodi:nodetypes="ccccccccccccc" id="path4492" d="M 30.003649,22.280617 L 41.079198,40.589668 L 33.748155,40.589668 L 25.811797,29.341637 L 17.9655,40.589668 L 10.90464,40.589668 L 21.740026,22.553887 L 11.324925,4.7093923 L 18.595928,4.7093923 L 25.901858,15.301578 L 33.507992,4.7093923 L 40.568853,4.7093923 L 30.003649,22.280617" style="font-size:64.45117188px;font-style:normal;font-variant:normal;font-weight:bold;font-stretch:normal;fill:url(#linearGradient4574);fill-opacity:1;stroke:#3d1b00;stroke-width:0.80369574;stroke-linecap:round;stroke-linejoin:round;stroke-miterlimit:4;stroke-dasharray:none;stroke-opacity:1;font-family:Ouhod;-inkscape-font-specification:Ouhod Bold" inkscape:export-filename="/home/henning/Desktop/theme/logo.png" inkscape:export-xdpi="70" inkscape:export-ydpi="70"/>
    <path style="fill:url(#linearGradient4608);fill-opacity:1;fill-rule:evenodd;stroke:#000000;stroke-width:0;stroke-linecap:butt;stroke-linejoin:miter;stroke-miterlimit:4;stroke-dasharray:none;stroke-opacity:1;opacity:0.68" d="M 4.684007,0.10868521 L 17.541356,22.168863 C 25.171297,19.259875 32.812413,16.742541 38.215207,15.053724 L 47.212161,0.10868521 L 32.529714,0.10868521 L 25.868325,10.2639 L 19.621687,0.10868521 L 4.684007,0.10868521 z" id="path4544" inkscape:export-filename="/home/henning/Desktop/theme/logo.png" inkscape:export-xdpi="70" inkscape:export-ydpi="70" sodipodi:nodetypes="cccccccc"/>
    <path style="fill:url(#linearGradient4646);fill-opacity:1;fill-rule:evenodd;stroke:#504416;stroke-width:0.99109668px;stroke-linecap:butt;stroke-linejoin:round;stroke-opacity:1" d="M 36.183734,27.781792 C 35.949894,27.900857 35.508519,27.890609 35.508519,28.156846 C 35.508519,28.56792 35.692669,29.755591 35.692669,29.344517 C 35.955176,29.237586 36.218472,29.171765 36.27581,28.938208 C 36.282252,28.91197 36.256486,27.744751 36.183734,27.781792 z M 30.597862,27.938064 C 30.54231,27.942051 30.488253,27.95592 30.444404,28.000573 C 30.326643,28.120494 30.00977,28.58029 30.290946,28.938208 C 30.384482,29.057273 30.491987,29.17419 30.597862,29.282008 C 30.784935,29.472511 30.963237,29.654084 31.150311,29.844589 C 31.942461,30.651266 32.959532,31.642124 32.899733,31.657349 C 32.899733,31.490658 32.939433,31.31899 32.899733,31.157277 C 32.834079,30.889849 32.889863,30.2721 32.684892,30.063369 C 32.357161,29.729626 32.256441,29.40828 31.917601,29.063226 C 31.617439,28.757558 30.986725,27.91015 30.597862,27.938064 z M 34.710537,31.563585 C 34.539797,31.486308 34.541571,32.539874 34.587771,32.657492 C 34.86366,33.359868 34.219471,32.593627 34.219471,33.657635 C 34.219471,33.768631 34.855251,34.882556 34.925378,35.001579 C 35.194627,35.458559 35.320505,35.853318 35.078837,36.345522 C 34.88926,36.731626 34.394857,36.559858 34.587771,37.345666 C 34.713454,37.857623 34.632151,38.055862 34.219471,37.845737 C 32.993616,37.221569 32.366782,35.896561 31.487918,35.001579 C 31.249239,34.758523 30.982908,35.280018 30.874087,35.501651 C 30.681543,35.893801 30.40762,36.089049 30.290946,36.564304 C 30.19126,36.970362 29.764815,36.845594 29.400889,36.845594 C 28.882175,36.845594 28.660046,37.034309 28.357375,37.345666 L 33.145265,44.784236 L 47.017871,44.784236 L 41.186466,35.126597 C 40.848476,34.943817 40.616314,34.702262 40.204335,34.282725 C 39.768326,33.838721 39.268176,33.313708 39.007362,32.78251 C 38.7713,32.301733 38.284546,32.518439 38.086615,32.720001 C 37.867231,32.943407 37.712233,33.701277 37.595548,33.938926 C 37.496524,34.14061 36.242302,32.256854 34.710537,31.563585 z M 15.896584,32.344947 C 15.3052,32.435963 14.401473,32.939891 14.239237,33.063801 C 13.806409,33.394375 12.959727,32.993099 12.244282,32.657492 L 4.9703717,44.784236 L 18.505369,44.784236 L 23.047728,37.626956 C 23.011888,37.628226 22.956602,37.65821 22.92496,37.65821 C 22.23023,37.65821 21.731166,35.697267 21.543838,35.22036 C 21.397574,34.847992 21.738614,34.29234 21.881446,34.001435 C 22.318172,33.111969 21.886968,33.575811 20.469633,33.720144 C 20.353292,33.73199 20.248946,33.720144 20.132025,33.720144 C 19.672202,33.720143 18.930805,33.928155 18.597445,34.063944 C 18.288615,34.18974 18.014905,35.156322 18.014304,35.157851 C 17.829406,35.628574 17.338323,33.438075 16.356958,32.438711 C 16.267761,32.347879 16.093711,32.314609 15.896584,32.344947 z M 31.11962,32.657492 C 31.025269,32.667382 30.899377,32.690122 30.782011,32.720001 C 30.046321,32.907297 30.898343,33.318876 30.874087,33.220073 C 30.922694,33.239873 31.579994,33.401774 31.579994,33.157564 C 31.579994,32.730633 31.402671,32.627822 31.11962,32.657492 z" id="path4628" inkscape:export-filename="/home/henning/Desktop/theme/logo.png" inkscape:export-xdpi="70" inkscape:export-ydpi="70"/>
    <path sodipodi:type="arc" style="fill:url(#radialGradient4534);fill-opacity:1;stroke:#3d3200;stroke-width:0;stroke-linecap:round;stroke-linejoin:round;stroke-miterlimit:4;stroke-dasharray:none;stroke-opacity:1" id="path4526" sodipodi:cx="27.285715" sodipodi:cy="46.357143" sodipodi:rx="12.142858" sodipodi:ry="0.9285714" d="M 39.428573,46.357143 A 12.142858,0.9285714 0 1 1 15.142858,46.357143 A 12.142858,0.9285714 0 1 1 39.428573,46.357143 z" transform="matrix(1.2247756,0,0,1.0001438,-18.828878,0.7109358)" inkscape:export-filename="/home/henning/Desktop/theme/logo.png" inkscape:export-xdpi="70" inkscape:export-ydpi="70"/>
    <path style="fill:none;fill-rule:evenodd;stroke:#504416;stroke-width:0.99109668px;stroke-linecap:butt;stroke-linejoin:miter;stroke-opacity:1" d="M 43.301379,32.153221 C 43.342644,30.936173 45.094523,30.479254 43.301379,32.153221 z" id="path4654" inkscape:export-filename="/home/henning/Desktop/theme/logo.png" inkscape:export-xdpi="70" inkscape:export-ydpi="70"/>
    <path style="fill:none;fill-rule:evenodd;stroke:#504416;stroke-width:0.99109668px;stroke-linecap:butt;stroke-linejoin:miter;stroke-opacity:1" d="M 46.077463,35.786551 C 44.307391,35.986097 45.746221,36.005096 46.077463,35.786551 z" id="path4656" inkscape:export-filename="/home/henning/Desktop/theme/logo.png" inkscape:export-xdpi="70" inkscape:export-ydpi="70"/>
    <path id="path4658" d="M 33.982638,39.911742 C 32.831899,40.248108 31.880738,38.689692 33.982638,39.911742 z" style="fill:#c4a000;fill-opacity:1;fill-rule:evenodd;stroke:#463c12;stroke-width:0.99109668px;stroke-linecap:butt;stroke-linejoin:miter;stroke-opacity:1" inkscape:export-filename="/home/henning/Desktop/theme/logo.png" inkscape:export-xdpi="70" inkscape:export-ydpi="70"/>
    <path id="path4496" style="fill:#cc0000;fill-opacity:1;fill-rule:evenodd;stroke:url(#linearGradient4612);stroke-width:2.97328997;stroke-linecap:butt;stroke-linejoin:miter;stroke-miterlimit:4;stroke-dasharray:none;stroke-opacity:1" d="M 19.540901,16.19098 L 48.872587,16.250323 M 25.793031,20.679603 L 49.372233,20.738946 M 27.224841,24.719366 L 49.821911,24.77871" inkscape:export-filename="/home/henning/Desktop/theme/logo.png" inkscape:export-xdpi="70" inkscape:export-ydpi="70" sodipodi:nodetypes="cccccc"/>
    <g id="g2820" transform="matrix(0.2611607,0,0,0.2611607,-32.571866,38.017639)">
      <g inkscape:export-ydpi="90.000008" inkscape:export-xdpi="90.000008" inkscape:export-filename="/home/henning/Desktop/theme/wheel-ng.png" transform="matrix(-2.2851505,0,0,-2.2838952,1787.304,978.7991)" id="g2865">
        <path id="path16820" d="M 695.39301,421.24197 C 698.78378,423.19964 696.03326,435.21916 695.36176,435.67529 C 694.69028,436.13144 694.11914,436.71178 693.6748,437.37681 C 693.23044,438.04184 692.91283,438.79157 692.74837,439.5865 C 692.58393,440.38144 692.57261,441.22156 692.74086,442.06739 C 692.90911,442.91323 693.24106,443.68506 693.6972,444.35656 C 694.15334,445.02804 694.73368,445.59916 695.39871,446.04352 C 696.06374,446.48789 696.81347,446.80549 697.60841,446.96995 C 698.40334,447.13439 699.24347,447.1457 700.08929,446.97746 C 700.93512,446.80921 701.70697,446.47726 702.37846,446.02113 C 703.04995,445.56498 703.62108,444.98465 704.06543,444.31961 C 704.50979,443.65457 704.8274,442.90485 704.99185,442.10991 C 705.1563,441.31498 705.16761,440.47486 704.99936,439.62903 C 704.83111,438.78319 704.49916,438.01135 704.04303,437.33986 C 703.58688,436.66837 703.00654,436.09725 702.34151,435.65289 C 701.67649,435.20853 699.50942,422.91244 702.38974,421.24948 C 703.09276,420.84359 694.64616,420.81077 695.39301,421.24197 z M 697.92151,436.07927 C 698.57981,435.94832 699.23358,435.95703 699.85212,436.08494 C 700.47064,436.21281 701.05394,436.45985 701.57132,436.80556 C 702.0887,437.15126 702.54017,437.59562 702.89501,438.11813 C 703.24987,438.64063 703.50812,439.2413 703.63905,439.89961 C 703.77,440.55791 703.76129,441.21168 703.63339,441.83021 C 703.50551,442.44874 703.25847,443.03204 702.91276,443.54942 C 702.56706,444.0668 702.1227,444.51826 701.60019,444.87311 C 701.07769,445.22796 700.47702,445.48621 699.81871,445.61715 C 699.16041,445.7481 698.50664,445.73938 697.88811,445.61148 C 697.26958,445.4836 696.68628,445.23656 696.1689,444.89085 C 695.65152,444.54515 695.20006,444.10079 694.84521,443.57829 C 694.49036,443.05578 694.23211,442.45512 694.10117,441.79681 C 693.97022,441.13851 693.97894,440.48474 694.10684,439.8662 C 694.23472,439.24768 694.48176,438.66438 694.82747,438.147 C 695.17317,437.62962 695.61753,437.17815 696.14003,436.82331 C 696.66254,436.46845 697.2632,436.2102 697.92151,436.07927 z" style="fill:url(#radialGradient2834);fill-opacity:1;stroke:#000000;stroke-width:1.1289624;stroke-linejoin:round;stroke-miterlimit:4;stroke-dasharray:none;stroke-opacity:1" sodipodi:nodetypes="csssssssssssssssscsssssssssssssssc"/>
        <path sodipodi:nodetypes="csssssssssssssssscsssssssssssssssc" style="fill:url(#radialGradient2836);fill-opacity:1;stroke:#000000;stroke-width:1.1289624;stroke-linejoin:round;stroke-miterlimit:4;stroke-dasharray:none;stroke-opacity:1" d="M 714.11108,428.0338 C 714.11107,431.94913 702.3266,435.57686 701.59583,435.2234 C 700.86505,434.86995 700.0769,434.66551 699.27879,434.6132 C 698.48067,434.5609 697.67259,434.6607 696.90193,434.91574 C 696.13127,435.1708 695.39805,435.58106 694.74966,436.14968 C 694.10127,436.71831 693.59881,437.39171 693.24535,438.12248 C 692.8919,438.85325 692.68746,439.64141 692.63515,440.43952 C 692.58283,441.23763 692.68264,442.04572 692.93769,442.81638 C 693.19274,443.58704 693.60302,444.32026 694.17163,444.96864 C 694.74025,445.61703 695.41365,446.11949 696.14443,446.47296 C 696.8752,446.82641 697.66335,447.03086 698.46146,447.08315 C 699.25958,447.13546 700.06767,447.03566 700.83833,446.78062 C 701.60899,446.52556 702.34221,446.1153 702.99059,445.54668 C 703.63899,444.97805 704.14144,444.30465 704.49491,443.57388 C 704.84836,442.8431 705.05279,442.05495 705.1051,441.25684 C 705.15742,440.45873 714.72261,432.43395 717.60294,434.0969 C 718.30596,434.50279 714.11108,427.17141 714.11108,428.0338 z M 702.52585,437.6422 C 702.9684,438.14683 703.28774,438.71737 703.48625,439.31698 C 703.68476,439.91658 703.76247,440.54525 703.72177,441.16617 C 703.68107,441.78709 703.52198,442.40025 703.24689,442.9688 C 702.97182,443.53737 702.58075,444.06135 702.07611,444.5039 C 701.57148,444.94646 701.00094,445.26579 700.40132,445.4643 C 699.80173,445.66281 699.17305,445.74052 698.55213,445.69982 C 697.93122,445.65912 697.31806,445.50003 696.7495,445.22495 C 696.18094,444.94987 695.65695,444.5588 695.2144,444.05416 C 694.77185,443.54953 694.45251,442.97899 694.25401,442.37937 C 694.05549,441.77978 693.97778,441.1511 694.01849,440.53018 C 694.05918,439.90927 694.21828,439.29611 694.49336,438.72756 C 694.76844,438.15899 695.1595,437.635 695.66415,437.19246 C 696.16877,436.7499 696.73931,436.43056 697.33893,436.23206 C 697.93853,436.03354 698.5672,435.95584 699.18812,435.99654 C 699.80904,436.03723 700.42219,436.19633 700.99075,436.47141 C 701.55932,436.74649 702.0833,437.13755 702.52585,437.6422 z" id="path16826"/>
        <path id="path16832" d="M 717.58813,447.64003 C 714.19736,449.59769 705.16341,441.20591 705.10414,440.39631 C 705.04484,439.58671 704.82782,438.80193 704.47406,438.0846 C 704.1203,437.36725 703.62983,436.71733 703.02362,436.17744 C 702.41741,435.63756 701.6955,435.2077 700.87887,434.9305 C 700.06222,434.65329 699.22782,434.55484 698.41822,434.61412 C 697.60862,434.67341 696.82385,434.89044 696.10651,435.24419 C 695.38916,435.59794 694.73924,436.08843 694.19935,436.69463 C 693.65947,437.30085 693.22962,438.02277 692.95241,438.83939 C 692.6752,439.65602 692.57675,440.49044 692.63603,441.30004 C 692.69532,442.10963 692.91234,442.89441 693.2661,443.61175 C 693.61986,444.32909 694.11033,444.97901 694.71654,445.5189 C 695.32275,446.05879 696.04466,446.48864 696.8613,446.76585 C 697.67794,447.04306 698.51235,447.1415 699.32195,447.08223 C 700.13154,447.02293 700.91632,446.8059 701.63366,446.45215 C 702.351,446.0984 714.08326,450.36972 714.08327,453.69563 C 714.08326,454.5074 718.33499,447.20884 717.58813,447.64003 z M 703.47441,442.41113 C 703.25866,443.04671 702.92423,443.60853 702.50419,444.08025 C 702.08419,444.55197 701.57859,444.9336 701.02051,445.20881 C 700.46243,445.48403 699.85188,445.65283 699.22195,445.69888 C 698.59202,445.74494 697.9427,445.66826 697.30712,445.4525 C 696.67155,445.23675 696.10972,444.90232 695.638,444.48229 C 695.16628,444.06228 694.78465,443.55668 694.50944,442.9986 C 694.23423,442.44053 694.06543,441.82997 694.01938,441.20004 C 693.97332,440.57011 694.05,439.92079 694.26576,439.28521 C 694.4815,438.64964 694.81594,438.08781 695.23597,437.61609 C 695.65598,437.14438 696.16157,436.76274 696.71965,436.48753 C 697.27773,436.21232 697.88829,436.04352 698.51821,435.99747 C 699.14814,435.95141 699.79746,436.02809 700.43304,436.24385 C 701.06862,436.45959 701.63044,436.79403 702.10216,437.21406 C 702.57388,437.63407 702.95551,438.13966 703.23072,438.69775 C 703.50594,439.25582 703.67473,439.86638 703.72079,440.4963 C 703.76685,441.12624 703.69016,441.77555 703.47441,442.41113 z" style="fill:url(#radialGradient2838);fill-opacity:1;stroke:#000000;stroke-width:1.1289624;stroke-linejoin:round;stroke-miterlimit:4;stroke-dasharray:none;stroke-opacity:1" sodipodi:nodetypes="csssssssssssssssscsssssssssssssssc"/>
        <path sodipodi:nodetypes="csssssssssssssssscsssssssssssssssc" style="fill:url(#radialGradient2840);fill-opacity:1;stroke:#000000;stroke-width:1.1289624;stroke-linejoin:round;stroke-miterlimit:4;stroke-dasharray:none;stroke-opacity:1" d="M 702.34719,460.45442 C 698.95642,458.49675 701.70694,446.47723 702.37844,446.0211 C 703.04992,445.56495 703.62105,444.98461 704.0654,444.31958 C 704.50976,443.65454 704.82737,442.90482 704.99183,442.10989 C 705.15627,441.31495 705.16758,440.47483 704.99933,439.629 C 704.83109,438.78316 704.49914,438.01132 704.043,437.33983 C 703.58686,436.66834 703.00651,436.09722 702.34149,435.65287 C 701.67646,435.20849 700.92673,434.89089 700.13179,434.72644 C 699.33685,434.56199 698.49673,434.55069 697.65091,434.71893 C 696.80508,434.88718 696.03323,435.21913 695.36173,435.67526 C 694.69025,436.13141 694.11912,436.71174 693.67477,437.37678 C 693.23041,438.04182 692.9128,438.79154 692.74834,439.58648 C 692.5839,440.38141 692.57259,441.22153 692.74084,442.06736 C 692.90908,442.9132 693.24103,443.68504 693.69717,444.35653 C 694.15331,445.02802 694.73366,445.59914 695.39868,446.0435 C 696.06371,446.48786 698.23078,458.78395 695.35045,460.44691 C 694.64744,460.8528 703.09404,460.88562 702.34719,460.45442 z M 699.81868,445.61712 C 699.16039,445.74807 698.50662,445.73935 697.88808,445.61145 C 697.26955,445.48358 696.68625,445.23654 696.16887,444.89083 C 695.65149,444.54513 695.20003,444.10077 694.84519,443.57826 C 694.49033,443.05575 694.23208,442.45509 694.10114,441.79678 C 693.9702,441.13848 693.97891,440.48471 694.10681,439.86618 C 694.23469,439.24765 694.48173,438.66435 694.82744,438.14697 C 695.17314,437.62959 695.6175,437.17813 696.14001,436.82328 C 696.66251,436.46843 697.26318,436.21018 697.92149,436.07924 C 698.57978,435.94829 699.23355,435.95701 699.85209,436.08491 C 700.47061,436.21279 701.05392,436.45983 701.5713,436.80554 C 702.08868,437.15124 702.54014,437.5956 702.89498,438.1181 C 703.24984,438.64061 703.50809,439.24127 703.63903,439.89958 C 703.76997,440.55788 703.76126,441.21165 703.63336,441.83019 C 703.50548,442.44871 703.25844,443.03201 702.91273,443.54939 C 702.56703,444.06677 702.12267,444.51823 701.60016,444.87308 C 701.07766,445.22793 700.47699,445.48618 699.81868,445.61712 z" id="path16838"/>
        <path sodipodi:nodetypes="csssssssssssssssscsssssssssssssssc" style="fill:url(#radialGradient2842);fill-opacity:1;stroke:#000000;stroke-width:1.1289624;stroke-linejoin:round;stroke-miterlimit:4;stroke-dasharray:none;stroke-opacity:1" d="M 683.62915,453.66253 C 683.62916,449.7472 695.41363,446.11947 696.1444,446.47293 C 696.87518,446.82638 697.66333,447.03082 698.46144,447.08313 C 699.25956,447.13543 700.06764,447.03563 700.8383,446.78059 C 701.60896,446.52553 702.34218,446.11527 702.99057,445.54665 C 703.63896,444.97802 704.14142,444.30462 704.49488,443.57385 C 704.84833,442.84308 705.05277,442.05492 705.10508,441.25681 C 705.1574,440.4587 705.05759,439.65061 704.80254,438.87995 C 704.54749,438.10929 704.13721,437.37607 703.5686,436.72769 C 702.99998,436.0793 702.32658,435.57684 701.5958,435.22337 C 700.86503,434.86992 700.07688,434.66547 699.27877,434.61318 C 698.48065,434.56087 697.67256,434.66067 696.9019,434.91571 C 696.13124,435.17077 695.39802,435.58103 694.74964,436.14965 C 694.10124,436.71828 693.59879,437.39168 693.24532,438.12245 C 692.89187,438.85323 692.68744,439.64138 692.63513,440.43949 C 692.58281,441.2376 683.01762,449.26238 680.13729,447.59943 C 679.43427,447.19354 683.62915,454.52492 683.62915,453.66253 z M 695.21438,444.05413 C 694.77183,443.5495 694.45249,442.97896 694.25398,442.37935 C 694.05547,441.77975 693.97776,441.15108 694.01846,440.53016 C 694.05916,439.90924 694.21825,439.29608 694.49334,438.72753 C 694.76841,438.15896 695.15948,437.63498 695.66412,437.19243 C 696.16875,436.74987 696.73929,436.43054 697.33891,436.23203 C 697.9385,436.03352 698.56718,435.95581 699.1881,435.99651 C 699.80901,436.03721 700.42217,436.1963 700.99073,436.47138 C 701.55929,436.74646 702.08328,437.13753 702.52583,437.64217 C 702.96838,438.1468 703.28772,438.71734 703.48622,439.31696 C 703.68474,439.91655 703.76245,440.54523 703.72174,441.16615 C 703.68105,441.78706 703.52195,442.40022 703.24687,442.96877 C 702.97179,443.53734 702.58073,444.06133 702.07608,444.50387 C 701.57146,444.94643 701.00092,445.26577 700.4013,445.46427 C 699.8017,445.66279 699.17303,445.74049 698.55211,445.69979 C 697.93119,445.6591 697.31804,445.5 696.74948,445.22492 C 696.18091,444.94984 695.65693,444.55878 695.21438,444.05413 z" id="path16814"/>
        <path id="path16787" d="M 680.15206,434.05636 C 683.54283,432.0987 692.57678,440.49048 692.63605,441.30008 C 692.69535,442.10968 692.91237,442.89446 693.26613,443.61179 C 693.61989,444.32914 694.11036,444.97906 694.71657,445.51895 C 695.32278,446.05883 696.04469,446.48869 696.86132,446.76589 C 697.67797,447.04311 698.51237,447.14155 699.32197,447.08227 C 700.13157,447.02298 700.91634,446.80595 701.63368,446.4522 C 702.35103,446.09846 703.00095,445.60797 703.54084,445.00176 C 704.08072,444.39555 704.51057,443.67363 704.78778,442.85701 C 705.06499,442.04037 705.16344,441.20596 705.10416,440.39636 C 705.04487,439.58676 704.82785,438.80198 704.47409,438.08465 C 704.12033,437.3673 703.62986,436.71738 703.02365,436.17749 C 702.41744,435.63761 701.69553,435.20775 700.87889,434.93055 C 700.06225,434.65333 699.22784,434.55489 698.41824,434.61417 C 697.60865,434.67346 696.82387,434.89049 696.10653,435.24424 C 695.38919,435.59799 683.65693,431.32668 683.65692,428.00077 C 683.65693,427.18899 679.4052,434.48756 680.15206,434.05636 z M 694.26578,439.28526 C 694.48153,438.64968 694.81596,438.08786 695.236,437.61614 C 695.656,437.14442 696.1616,436.76279 696.71968,436.48758 C 697.27776,436.21236 697.88831,436.04357 698.51824,435.99752 C 699.14817,435.95146 699.79749,436.02814 700.43307,436.2439 C 701.06864,436.45964 701.63047,436.79407 702.10219,437.21411 C 702.57391,437.63412 702.95554,438.13971 703.23075,438.69779 C 703.50596,439.25587 703.67476,439.86643 703.72081,440.49635 C 703.76687,441.12628 703.69019,441.7756 703.47443,442.41118 C 703.25869,443.04676 702.92425,443.60858 702.50422,444.0803 C 702.08421,444.55202 701.57862,444.93365 701.02054,445.20886 C 700.46246,445.48408 699.8519,445.65287 699.22198,445.69892 C 698.59205,445.74498 697.94273,445.6683 697.30715,445.45254 C 696.67157,445.2368 696.10975,444.90237 695.63803,444.48233 C 695.16631,444.06233 694.78468,443.55673 694.50947,442.99865 C 694.23425,442.44057 694.06546,441.83002 694.0194,441.20009 C 693.97334,440.57016 694.05003,439.92084 694.26578,439.28526 z" style="fill:url(#radialGradient2845);fill-opacity:1;stroke:#000000;stroke-width:1.1289624;stroke-linejoin:round;stroke-miterlimit:4;stroke-dasharray:none;stroke-opacity:1" sodipodi:nodetypes="csssssssssssssssscsssssssssssssssc"/>
        <path style="fill:url(#radialGradient2848);fill-opacity:1;stroke:#000000;stroke-width:1.1289624;stroke-linejoin:round;stroke-miterlimit:4;stroke-dasharray:none;stroke-opacity:1" d="M 698.87011,416.59663 C 685.48342,416.59663 674.61853,427.46151 674.61853,440.84821 C 674.61853,454.2349 685.48342,465.09979 698.87011,465.09979 C 712.25681,465.09979 723.12169,454.2349 723.12169,440.84821 C 723.12169,427.46151 712.25681,416.59663 698.87011,416.59663 z M 698.87011,421.97891 C 709.28899,421.97891 717.73941,430.42933 717.73941,440.84821 C 717.73941,451.26709 709.28899,459.7175 698.87011,459.7175 C 688.45123,459.7175 680.00082,451.26709 680.00082,440.84821 C 680.00082,430.42933 688.45123,421.97891 698.87011,421.97891 z" id="path16818"/>
      </g>
      <path inkscape:export-ydpi="90.000008" inkscape:export-xdpi="90.000008" inkscape:export-filename="/home/henning/Desktop/theme/wheel-ng.png" id="path3681" d="M 190.27924,-43.71314 C 181.60978,-43.71314 174.61257,-36.71116 174.61257,-28.04647 C 174.61257,-19.39005 181.60978,-12.37981 190.27924,-12.37981 C 198.94042,-12.37981 206.01257,-19.39005 206.01257,-28.04647 C 206.01258,-36.71116 198.94042,-43.71314 190.27924,-43.71314 z M 190.27924,-41.77981 C 190.85424,-41.77981 191.34591,-40.39214 191.34591,-38.71314 C 191.34591,-37.03414 190.85424,-35.64647 190.27924,-35.64647 C 189.70424,-35.64647 189.27924,-37.03414 189.27924,-38.71314 C 189.27924,-40.39214 189.70424,-41.77981 190.27924,-41.77981 z M 178.81257,-35.11314 C 179.39955,-35.2059 180.45538,-34.87611 181.54591,-34.24647 C 182.99996,-33.40699 183.96673,-32.34444 183.67924,-31.84647 C 183.39173,-31.34851 181.99996,-31.60699 180.54591,-32.44647 C 179.09185,-33.28598 178.12508,-34.41518 178.41257,-34.91314 C 178.48445,-35.03764 178.61691,-35.08221 178.81257,-35.11314 z M 201.01257,-35.11314 C 201.58362,-35.22512 202.00216,-35.16212 202.14591,-34.91314 C 202.43341,-34.41518 201.5333,-33.28596 200.07924,-32.44647 C 198.62518,-31.60696 197.16673,-31.34851 196.87924,-31.84647 C 196.59173,-32.34444 197.55851,-33.40696 199.01257,-34.24647 C 199.7396,-34.66621 200.44152,-35.00116 201.01257,-35.11314 z M 190.27924,-32.51314 C 192.74797,-32.51314 194.74591,-30.5221 194.74591,-28.04647 C 194.74591,-25.5791 192.74797,-23.57981 190.27924,-23.57981 C 187.80225,-23.57981 185.81257,-25.5791 185.81257,-28.04647 C 185.81257,-30.5221 187.80225,-32.51314 190.27924,-32.51314 z M 182.54591,-24.44647 C 183.11696,-24.55845 183.53549,-24.49545 183.67924,-24.24647 C 183.96675,-23.74851 182.99996,-22.61929 181.54591,-21.77981 C 180.09184,-20.9403 178.70006,-20.68184 178.41257,-21.17981 C 178.12506,-21.67777 179.09185,-22.7403 180.54591,-23.57981 C 181.27293,-23.99954 181.97485,-24.33449 182.54591,-24.44647 z M 197.27924,-24.44647 C 197.86622,-24.53923 198.98871,-24.20944 200.07924,-23.57981 C 201.53329,-22.74032 202.43339,-21.67777 202.14591,-21.17981 C 201.8584,-20.68184 200.46663,-20.94032 199.01257,-21.77981 C 197.55851,-22.61932 196.59175,-23.74851 196.87924,-24.24647 C 196.95111,-24.37097 197.08358,-24.41554 197.27924,-24.44647 z M 190.27924,-20.44647 C 190.85424,-20.44647 191.34591,-19.0588 191.34591,-17.37981 C 191.34591,-15.70081 190.85424,-14.31314 190.27924,-14.31314 C 189.70424,-14.31314 189.27924,-15.70081 189.27924,-17.37981 C 189.27924,-19.0588 189.70424,-20.44647 190.27924,-20.44647 z" style="fill:url(#radialGradient2851);fill-opacity:1;stroke:#000000;stroke-width:0;stroke-miterlimit:4;stroke-dasharray:none;stroke-opacity:1"/>
      <path inkscape:export-ydpi="90.000008" inkscape:export-xdpi="90.000008" inkscape:export-filename="/home/henning/Desktop/theme/wheel-ng.png" id="path16770" d="M 190.53274,36.27153 C 191.56481,36.25503 192.5721,36.23027 193.59593,36.19726 C 194.00052,36.18075 194.44636,34.65414 194.85095,33.5566 C 195.43717,33.51534 196.00688,33.40806 196.59307,33.35029 C 196.63437,33.34205 196.68391,33.35029 196.72519,33.35029 C 197.13801,33.30079 197.57562,33.25951 197.98019,33.21002 C 198.59943,34.20025 199.31777,35.63613 199.72235,35.57011 C 201.76173,35.30604 203.76809,34.77791 205.77445,34.32403 C 206.17076,34.21678 206.22029,32.62412 206.40195,31.46882 C 207.02119,31.30378 207.6652,31.17177 208.28444,30.98197 C 208.72203,30.84991 209.1679,30.70965 209.60551,30.56934 C 210.37336,31.41107 211.25684,32.57461 211.62012,32.44258 C 213.57695,31.78239 215.45119,30.91594 217.3337,30.08249 C 217.67222,29.91743 217.53185,28.44031 217.46582,27.29326 C 217.92818,27.07046 218.40705,26.8394 218.86117,26.6001 C 218.93547,26.55884 218.99327,26.50107 219.06759,26.45981 C 219.32355,26.32778 219.57948,26.17924 219.83546,26.0472 C 220.11619,25.89043 220.38866,25.71714 220.66936,25.56036 C 221.59412,26.23701 222.70051,27.15298 223.03903,26.94668 C 224.82245,25.92343 226.44075,24.66088 228.11683,23.47257 C 228.42234,23.24151 227.98473,21.93768 227.70401,20.82365 C 228.67828,20.07272 229.6856,19.28053 230.62684,18.46357 C 231.6424,18.94218 232.84788,19.55283 233.1286,19.29702 C 234.68084,17.94367 236.03493,16.47481 237.44681,14.98118 C 237.69449,14.70886 237.03397,13.4958 236.53859,12.48078 C 236.74501,12.24149 236.96792,12.02692 237.16609,11.78762 C 237.7771,11.04492 238.39632,10.32701 238.97428,9.55955 C 240.0559,9.83187 241.32741,10.20324 241.55034,9.90615 C 242.80536,8.27223 243.87047,6.49804 244.96033,4.75686 C 245.15022,4.44328 244.25025,3.36225 243.56496,2.46278 C 243.74661,2.1492 243.88698,1.81085 244.0521,1.48902 C 244.12641,1.34875 244.19246,1.20846 244.26678,1.07643 C 244.60528,0.4245 244.99335,-0.21089 245.30712,-0.87932 C 246.43828,-0.82155 247.79235,-0.67301 247.94921,-1.01136 C 248.86569,-2.8598 249.58403,-4.79905 250.31888,-6.72178 C 250.45097,-7.08489 249.29505,-8.03386 248.43636,-8.80131 C 248.51066,-9.03237 248.57673,-9.27169 248.65104,-9.50275 C 248.68406,-9.61003 248.68406,-9.73381 248.71708,-9.84933 C 248.72534,-9.87408 248.78313,-9.89059 248.79141,-9.91534 C 248.79141,-9.9401 248.78313,-9.96487 248.79141,-9.9896 C 248.82441,-10.09688 248.82441,-10.22066 248.85746,-10.3362 C 249.04737,-10.98813 249.24551,-11.63177 249.41063,-12.2837 C 250.5583,-12.46525 252.03623,-12.52299 252.12707,-12.91083 C 252.66375,-14.89959 252.96924,-16.93786 253.31602,-18.95962 C 253.36558,-19.35572 252.01148,-20.03239 251.01242,-20.62655 C 251.1528,-21.71581 251.21884,-22.81334 251.29315,-23.90262 C 252.39128,-24.31523 253.91875,-24.73609 253.93526,-25.14868 C 254.07563,-27.20344 253.99307,-29.29121 253.93526,-31.34599 C 253.91875,-31.74209 252.39128,-32.12169 251.29315,-32.52603 C 251.21059,-33.59056 251.07847,-34.66333 250.94638,-35.72784 C 251.93716,-36.33851 253.37381,-36.99041 253.31602,-37.39476 C 253.04355,-39.43303 252.58945,-41.43828 252.12707,-43.44353 C 252.028,-43.83137 250.42623,-43.8974 249.27856,-44.07069 C 249.09688,-44.71436 248.91525,-45.38277 248.71708,-46.01819 C 248.59322,-46.43903 248.43636,-46.85166 248.30426,-47.2725 C 249.15467,-48.05646 250.31888,-48.98068 250.1785,-49.36027 C 249.51798,-51.30777 248.65104,-53.18924 247.81712,-55.06245 C 247.65198,-55.40903 246.24009,-55.19451 245.1007,-55.12848 C 244.88602,-55.56583 244.63007,-55.95367 244.40713,-56.38279 C 244.38236,-56.43231 244.3576,-56.47357 244.33281,-56.52308 C 244.01082,-57.14198 243.70533,-57.79389 243.35854,-58.40455 C 244.03559,-59.30403 244.87775,-60.36857 244.6796,-60.69863 C 243.65579,-62.48108 242.45857,-64.16451 241.26962,-65.84793 C 241.04671,-66.14501 239.72564,-65.70764 238.62751,-65.42706 C 238.61925,-65.43532 238.56971,-65.41883 238.56146,-65.42706 C 238.4789,-65.53435 238.42934,-65.66638 238.34678,-65.77366 C 237.64498,-66.66489 236.94315,-67.49834 236.19179,-68.3483 C 236.67071,-69.35506 237.34772,-70.51037 237.09176,-70.78269 C 235.73769,-72.33405 234.20197,-73.75342 232.70751,-75.16453 C 232.44329,-75.41209 231.27913,-74.75191 230.27182,-74.2568 C 230.02411,-74.47959 229.75992,-74.67767 229.5122,-74.88396 C 229.49569,-74.90045 229.45441,-74.8757 229.4379,-74.88396 C 228.71132,-75.49463 228.04252,-76.12178 227.28291,-76.6994 C 227.55538,-77.76394 227.92692,-78.98523 227.6297,-79.1998 C 225.99489,-80.45411 224.21972,-81.51863 222.47755,-82.60791 C 222.15557,-82.80594 221.09872,-81.89823 220.18222,-81.2133 C 219.98407,-81.32882 219.82719,-81.46088 219.62904,-81.56814 C 219.49692,-81.63415 219.34006,-81.70017 219.20794,-81.77445 C 219.10062,-81.8322 218.96852,-81.85697 218.86117,-81.91472 C 218.19239,-82.2613 217.51534,-82.63267 216.84656,-82.95449 C 216.89609,-84.08503 217.05298,-85.50438 216.7062,-85.66943 C 214.85673,-86.57714 212.91642,-87.22907 210.99263,-87.96349 C 210.6376,-88.08729 209.73763,-86.93198 208.97801,-86.08202 C 208.73031,-86.16454 208.4661,-86.21405 208.21014,-86.29659 C 208.09456,-86.32957 207.98723,-86.3956 207.86337,-86.43686 C 207.82209,-86.44511 207.77255,-86.42036 207.72299,-86.43686 C 206.97991,-86.65143 206.24506,-86.87421 205.50198,-87.05578 C 205.32033,-88.20281 205.18823,-89.74595 204.80016,-89.84498 C 202.81033,-90.37311 200.77093,-90.67843 198.74806,-91.02502 C 198.35175,-91.08279 197.68295,-89.65518 197.08022,-88.65667 C 196.75824,-88.69793 196.4197,-88.69793 196.10595,-88.73094 C 195.3381,-88.81345 194.5702,-88.88774 193.80235,-88.93723 C 193.38951,-90.03476 193.04276,-91.6274 192.62166,-91.65217 C 190.56575,-91.7842 188.48508,-91.70992 186.42919,-91.65217 C 186.01637,-91.6274 185.58704,-90.03476 185.17419,-88.93723 C 184.59623,-88.89597 184.01827,-88.85471 183.43205,-88.79696 C 183.00272,-88.7557 182.54857,-88.71444 182.11098,-88.65667 C 181.49174,-89.65518 180.71561,-91.08279 180.30279,-91.02502 C 178.26341,-90.76095 176.3231,-90.23282 174.31674,-89.7707 C 173.92043,-89.67167 173.80483,-88.07078 173.6232,-86.92375 C 172.54157,-86.62666 171.47647,-86.37085 170.41961,-86.01599 C 169.65176,-86.85772 168.76828,-88.02952 168.40502,-87.89748 C 166.4482,-87.23732 164.57394,-86.37085 162.69968,-85.52914 C 162.35292,-85.36411 162.49328,-83.88697 162.55932,-82.74819 C 162.36116,-82.64916 162.19602,-82.50062 161.99787,-82.40161 C 161.73366,-82.2613 161.42817,-82.1953 161.16395,-82.05501 C 160.53645,-81.71666 159.9007,-81.36183 159.28146,-81.00699 C 158.38147,-81.68366 157.31638,-82.59141 156.98612,-82.40161 C 155.20267,-81.37008 153.58439,-80.10753 151.90829,-78.91922 C 151.61106,-78.69642 152.04041,-77.3761 152.32937,-76.27856 C 152.00737,-76.03099 151.66059,-75.83293 151.3551,-75.58538 C 151.29729,-75.54412 151.26428,-75.48635 151.21473,-75.44509 C 150.59548,-74.94171 150.00103,-74.43833 149.39828,-73.91022 C 148.38273,-74.39707 147.17726,-74.99948 146.89652,-74.74367 C 145.34428,-73.39035 143.99019,-71.85544 142.57831,-70.36182 C 142.33063,-70.0895 142.99115,-68.87645 143.48656,-67.86145 C 143.28011,-67.62213 143.0572,-67.40756 142.85906,-67.16827 C 142.76822,-67.05273 142.67738,-66.92895 142.57831,-66.82166 C 142.06642,-66.19451 141.53799,-65.58386 141.05084,-64.94021 C 139.96922,-65.21253 138.69771,-65.65812 138.47478,-65.36106 C 137.21978,-63.72716 136.16293,-61.95295 135.0648,-60.21177 C 134.87489,-59.88993 135.77488,-58.80891 136.46017,-57.91769 C 136.27853,-57.59585 136.13816,-57.25753 135.97304,-56.94395 C 135.89872,-56.80366 135.83267,-56.66335 135.75836,-56.52308 C 135.41982,-55.87116 135.04003,-55.244 134.71802,-54.57558 C 133.58686,-54.63335 132.2328,-54.78188 132.07591,-54.4353 C 131.15943,-52.58685 130.44112,-50.65584 129.70627,-48.73311 C 129.57415,-48.36178 130.79614,-47.42102 131.65481,-46.64534 C 131.58051,-46.40603 131.44839,-46.19148 131.37411,-45.95218 C 131.34106,-45.83664 131.34106,-45.71286 131.30804,-45.60558 C 131.29978,-45.57258 131.24199,-45.56432 131.23373,-45.53132 C 131.23373,-45.51483 131.24199,-45.4818 131.23373,-45.46529 C 131.09336,-44.97842 130.95301,-44.49155 130.82089,-44.00468 C 130.74659,-43.72413 130.68054,-43.44353 130.61449,-43.17121 C 129.46682,-42.98968 127.98889,-42.85763 127.89805,-42.46979 C 127.36137,-40.48103 127.0559,-38.44278 126.71736,-36.42102 C 126.65957,-36.03316 128.02189,-35.34825 129.0127,-34.7541 C 128.88058,-33.67308 128.8063,-32.62508 128.73197,-31.55229 C 127.63384,-31.13144 126.10637,-30.71884 126.08986,-30.29797 C 125.94951,-28.24321 126.03207,-26.16368 126.08986,-24.10892 C 126.10637,-23.69631 127.70814,-23.26721 128.79802,-22.8546 C 128.84758,-22.28521 128.88058,-21.69106 128.9384,-21.11342 C 128.94665,-21.07216 128.9384,-21.02264 128.9384,-20.98138 C 128.97968,-20.57703 129.02921,-20.18919 129.07877,-19.7931 C 128.08796,-19.17417 126.65131,-18.4645 126.71736,-18.06015 C 126.98157,-16.01364 127.4357,-14.00837 127.89805,-12.00312 C 127.99715,-11.61528 129.59892,-11.55749 130.74659,-11.37597 C 130.90345,-10.82309 131.06861,-10.25368 131.23373,-9.70904 C 131.26676,-9.61827 131.27501,-9.51924 131.30804,-9.42847 C 131.44016,-9.00762 131.58878,-8.59499 131.72086,-8.18241 C 130.87045,-7.39022 129.70627,-6.47423 129.84662,-6.09462 C 130.50714,-4.13889 131.37411,-2.26567 132.20801,-0.39246 C 132.37315,-0.04585 133.78501,-0.26042 134.92444,-0.31817 C 135.47762,0.79585 136.11339,1.86862 136.73264,2.94965 C 136.0556,3.87387 135.13912,4.91364 135.34554,5.2437 C 136.36935,7.02617 137.56656,8.71786 138.7555,10.39304 C 138.97844,10.69008 140.30776,10.26099 141.39764,9.97217 C 141.64532,10.29399 141.90953,10.63233 142.16549,10.94591 C 142.19851,10.98717 142.19851,11.05318 142.23156,11.08618 C 142.7352,11.7051 143.3049,12.29924 143.83333,12.90165 C 143.35444,13.90841 142.67738,15.05544 142.93336,15.33601 C 144.28743,16.87916 145.82317,18.30677 147.31762,19.71788 C 147.59009,19.95718 148.74601,19.29702 149.75331,18.81013 C 150.73586,19.66009 151.70187,20.46056 152.74221,21.2445 C 152.46974,22.31726 152.0982,23.53034 152.39544,23.74489 C 154.03026,25.00744 155.8054,26.06372 157.54757,27.16125 C 157.87783,27.35106 158.92641,26.45156 159.84291,25.76665 C 160.00803,25.8574 160.16491,25.95645 160.33005,26.0472 C 160.35482,26.06372 160.37133,26.09672 160.3961,26.11323 C 160.53645,26.18749 160.67681,26.2535 160.81718,26.31952 C 160.93278,26.38555 161.04011,26.46807 161.16395,26.5341 C 161.48596,26.69913 161.81624,26.85591 162.13825,27.02096 C 162.485,27.186 162.83179,27.34278 163.18682,27.50783 C 163.12903,28.63837 162.98042,30.05772 163.31894,30.2145 C 165.16841,31.13049 167.10872,31.78239 169.03252,32.51684 C 169.40406,32.64061 170.33705,31.49358 171.11318,30.63537 C 171.35263,30.70965 171.57554,30.84166 171.815,30.91594 C 172.72321,31.18826 173.61492,31.44409 174.52316,31.67511 C 174.7048,32.82216 174.83691,34.2993 175.22497,34.39005 C 177.21481,34.92646 179.25419,35.23178 181.27706,35.57011 C 181.67337,35.62788 182.34217,34.20025 182.9449,33.21002 C 184.03478,33.34205 185.13291,33.41631 186.22277,33.49058 C 186.63561,34.57986 186.98239,36.18075 187.40348,36.19726 C 188.42729,36.27153 189.50891,36.2798 190.53274,36.27153 z M 190.32632,19.01644 C 164.33449,19.01644 143.20583,-2.09238 143.20583,-28.06992 C 143.20583,-54.04746 164.33449,-75.09851 190.32632,-75.09851 C 216.31815,-75.09851 237.37251,-54.04746 237.37251,-28.06992 C 237.37251,-2.09238 216.31815,19.01644 190.32632,19.01644 z" style="fill:#000000;fill-opacity:1;stroke:none;stroke-width:1;stroke-linejoin:round;stroke-miterlimit:4;stroke-dasharray:none;stroke-opacity:0.68406504"/>
      <path inkscape:export-ydpi="90.000008" inkscape:export-xdpi="90.000008" inkscape:export-filename="/home/henning/Desktop/theme/wheel-ng.png" id="path22111" d="M 190.29328,29.62037 C 222.15557,29.62037 248.01528,3.77486 248.01528,-28.06992 C 248.01528,-59.90644 222.15557,-85.75195 190.29328,-85.75195 C 158.43926,-85.75195 132.57957,-59.90644 132.57957,-28.06992 C 132.57957,3.77486 158.43926,29.62037 190.29328,29.62037 z M 190.29328,21.07946 C 163.1538,21.07946 141.12517,-0.93707 141.12517,-28.06992 C 141.12517,-55.19451 163.1538,-77.21104 190.29328,-77.21104 C 217.44103,-77.21104 239.46968,-55.19451 239.46968,-28.06992 C 239.46968,-0.93707 217.44103,21.07946 190.29328,21.07946 z" style="fill:url(#radialGradient2854);fill-opacity:1;stroke:none;stroke-width:1;stroke-linejoin:round;stroke-miterlimit:4;stroke-dasharray:none;stroke-opacity:1"/>
      <path inkscape:export-ydpi="90.000008" inkscape:export-xdpi="90.000008" inkscape:export-filename="/home/henning/Desktop/theme/wheel-ng.png" id="path3709" d="M 190.29382,-45.72588 C 180.54276,-45.725881 172.60632,-37.78409 172.60632,-28.03838 C 172.60632,-18.292699 180.54276,-10.38213 190.29382,-10.38213 C 200.04488,-10.382129 207.95007,-18.2927 207.95007,-28.03838 C 207.95007,-37.784089 200.04488,-45.72588 190.29382,-45.72588 z M 190.29382,-43.22588 C 198.66501,-43.22588 205.45007,-36.404979 205.45007,-28.03838 C 205.45007,-19.67181 198.66501,-12.882129 190.29382,-12.88213 C 181.92263,-12.88213 175.10632,-19.671809 175.10632,-28.03838 C 175.10632,-36.40498 181.92263,-43.225881 190.29382,-43.22588 z" style="fill:#000000;fill-opacity:1;stroke:#000000;stroke-width:0;stroke-miterlimit:4;stroke-dasharray:none;stroke-opacity:1"/>
    </g>
  </g>
</svg>